HIERARCHY
ROOT Hips
{
	OFFSET 0.000000 88.474243 0.000000
	CHANNELS 6 Xposition Yposition Zposition Zrotation Yrotation Xrotation 
	JOINT Hips_Spine
	{
		OFFSET 0.000000 0.000000 0.000000
		CHANNELS 3 Zrotation Yrotation Xrotation
		JOINT Spine
		{
			OFFSET 0.005100 8.711998 -0.691000
			CHANNELS 3 Zrotation Yrotation Xrotation
			JOINT Spine1
			{
				OFFSET -0.009200 8.660301 -1.275000
				CHANNELS 3 Zrotation Yrotation Xrotation
				JOINT Spine2
				{
					OFFSET 0.006300 9.852501 -1.857000
					CHANNELS 3 Zrotation Yrotation Xrotation
					JOINT Spine2_Neck
					{
						OFFSET 0.000000 0.000000 0.000000
						CHANNELS 3 Zrotation Yrotation Xrotation
						JOINT Neck
						{
							OFFSET 0.016300 11.420799 -0.263300
							CHANNELS 3 Zrotation Yrotation Xrotation
							End Site #name: Head
							{
								OFFSET -0.019200 9.262405 2.362500
							}
						}
					}
					JOINT Spine2_LeftShoulder
					{
						OFFSET 0.000000 0.000000 0.000000
						CHANNELS 3 Zrotation Yrotation Xrotation
						JOINT LeftShoulder
						{
							OFFSET 5.616900 6.732201 -0.345700
							CHANNELS 3 Zrotation Yrotation Xrotation
							JOINT LeftArm
							{
								OFFSET 10.664888 -0.183372 -2.440700
								CHANNELS 3 Zrotation Yrotation Xrotation
								JOINT LeftForeArm
								{
									OFFSET 27.459126 0.000000 0.000000
									CHANNELS 3 Zrotation Yrotation Xrotation
									End Site #name: LeftHand
									{
										OFFSET 21.306858 0.000000 0.000000
									}
								}
							}
						}
					}
					JOINT Spine2_RightShoulder
					{
						OFFSET 0.000000 0.000000 0.000000
						CHANNELS 3 Zrotation Yrotation Xrotation
						JOINT RightShoulder
						{
							OFFSET -5.580300 6.737503 -0.344400
							CHANNELS 3 Zrotation Yrotation Xrotation
							JOINT RightArm
							{
								OFFSET -10.679335 -0.188484 -2.383900
								CHANNELS 3 Zrotation Yrotation Xrotation
								JOINT RightForeArm
								{
									OFFSET -27.503529 0.000000 0.000000
									CHANNELS 3 Zrotation Yrotation Xrotation
									End Site #name: RightHand
									{
										OFFSET -21.306808 0.000000 0.000000
									}
								}
							}
						}
					}
				}
			}
		}
	}
	JOINT Hips_LeftUpLeg
	{
		OFFSET 0.000000 0.000000 0.000000
		CHANNELS 3 Zrotation Yrotation Xrotation
		JOINT LeftUpLeg
		{
			OFFSET 6.857700 -6.739601 0.312100
			CHANNELS 3 Zrotation Yrotation Xrotation
			JOINT LeftLeg
			{
				OFFSET -0.367590 -34.731552 -4.572400
				CHANNELS 3 Zrotation Yrotation Xrotation
				End Site #name: LeftFoot
				{
					OFFSET 0.367590 -34.656704 -6.067400
				}
			}
		}
	}
	JOINT Hips_RightUpLeg
	{
		OFFSET 0.000000 0.000000 0.000000
		CHANNELS 3 Zrotation Yrotation Xrotation
		JOINT RightUpLeg
		{
			OFFSET -6.876100 -6.733299 0.301000
			CHANNELS 3 Zrotation Yrotation Xrotation
			JOINT RightLeg
			{
				OFFSET 0.347353 -34.795158 -4.515900
				CHANNELS 3 Zrotation Yrotation Xrotation
				End Site #name: RightFoot
				{
					OFFSET -0.347353 -34.589367 -6.070300
				}
			}
		}
	}
}
MOTION
Frames: 6
Frame Time: 0.041667
-0.455199 0.195333 -1.425852 -3.676862 2.830523 -1.194470 0.000000 0.000000 0.000000 3.302168 -0.493582 22.486046 0.313751 0.259324 2.028865 0.000000 0.000000 0.000000 0.598868 0.275266 1.244547 1.922205 -0.633247 8.561116 0.552947 0.261013 1.587401 -8.183533 2.406409 -1.342515 -67.508722 -2.062789 10.939592 -0.015125 -56.532057 0.910545 0.306092 0.407483 2.075530 5.438692 -8.622635 0.022268 71.508524 13.655327 9.931907 179.383385 81.848337 179.486776 0.000000 0.000000 0.000000 6.169778 7.701671 -69.307992 5.351101 -4.816431 60.448772 0.000000 -0.000000 0.000000 -5.763891 -7.394461 -63.898074 -0.481668 -0.841396 68.486974 
-0.472994 0.202629 -1.465853 -3.662616 2.821405 -1.189061 0.000000 0.000000 0.000000 3.309092 -0.476626 22.467495 0.323942 0.260215 2.050311 0.000000 0.000000 0.000000 0.616117 0.276081 1.268607 1.925127 -0.630408 8.529677 0.566387 0.262454 1.611412 -8.198711 2.346417 -1.335037 -67.530518 -2.153317 10.829225 -0.009775 -56.022125 0.903700 0.323444 0.406547 2.121478 5.587572 -8.649018 0.010645 71.649763 14.040270 10.515083 179.232151 83.643468 179.344492 0.000000 0.000000 0.000000 6.165713 7.700311 -69.318858 5.354366 -4.818444 60.447250 0.000000 -0.000000 0.000000 -5.763451 -7.396391 -63.904686 -0.482940 -0.843170 68.492389 
-0.489993 0.209731 -1.505428 -3.649555 2.810004 -1.180826 0.000000 0.000000 0.000000 3.315786 -0.456010 22.440483 0.334945 0.260933 2.069837 0.000000 0.000000 0.000000 0.634738 0.276883 1.291991 1.930633 -0.625232 8.491701 0.580968 0.263629 1.634288 -8.214987 2.274780 -1.324248 -67.557198 -2.247978 10.698241 -0.002760 -55.426188 0.894702 0.342627 0.405013 2.169015 5.787261 -8.662550 0.000764 71.811675 14.539537 11.179680 178.957239 85.526890 179.079585 0.000000 0.000000 0.000000 6.161806 7.698837 -69.328920 5.359043 -4.819342 60.446128 0.000000 -0.000000 0.000000 -5.762107 -7.398578 -63.904302 -0.484663 -0.844925 68.493059 
-0.506071 0.216598 -1.544586 -3.638926 2.800763 -1.176246 0.000000 0.000000 0.000000 3.323868 -0.434360 22.413509 0.347544 0.262260 2.090421 0.000000 0.000000 0.000000 0.654512 0.278094 1.316996 1.935549 -0.618987 8.451097 0.597108 0.265178 1.659963 -8.234215 2.194535 -1.313706 -67.585458 -2.360314 10.561430 0.003840 -54.720775 0.885602 0.362800 0.404233 2.219585 6.003504 -8.677245 -0.009339 72.003058 14.919197 11.815504 178.155097 87.539371 178.286620 0.000000 0.000000 0.000000 6.158452 7.698278 -69.338023 5.363161 -4.819877 60.441726 0.000000 -0.000000 0.000000 -5.761198 -7.401699 -63.904140 -0.486705 -0.846121 68.489792 
-0.521189 0.223358 -1.583344 -3.629675 2.791585 -1.170407 0.000000 0.000000 0.000000 3.332328 -0.409151 22.377982 0.360652 0.263937 2.111448 0.000000 0.000000 0.000000 0.675754 0.279465 1.342227 1.942575 -0.612349 8.404963 0.613287 0.267162 1.686889 -8.260608 2.091182 -1.296904 -67.611380 -2.473702 10.451660 0.011726 -53.853746 0.872135 0.384965 0.402831 2.271120 6.247573 -8.698250 -0.023017 72.242884 15.274708 12.457038 165.194251 89.703195 165.332911 0.000000 0.000000 0.000000 6.156337 7.700095 -69.349664 5.367332 -4.819839 60.441084 0.000000 -0.000000 0.000000 -5.757743 -7.402302 -63.901679 -0.487544 -0.848295 68.485225 
-0.535246 0.229974 -1.621749 -3.621673 2.782553 -1.162164 0.000000 0.000000 0.000000 3.341107 -0.378082 22.342154 0.373959 0.266370 2.132264 0.000000 0.000000 0.000000 0.697924 0.281852 1.368871 1.947799 -0.604122 8.354283 0.630548 0.269904 1.715224 -8.272083 1.979909 -1.278104 -67.608015 -2.589387 10.359571 0.022046 -52.862517 0.857394 0.407857 0.402116 2.327186 6.510957 -8.721727 -0.037785 72.464631 15.575697 13.137993 2.066384 87.957258 2.213608 0.000000 0.000000 0.000000 6.155010 7.702499 -69.357519 5.372176 -4.818496 60.441026 0.000000 -0.000000 0.000000 -5.755257 -7.404208 -63.895178 -0.489154 -0.850430 68.479998 
